<?xml version="1.0" encoding="utf-8"?>
<!-- Generator: Adobe Illustrator 15.0.0, SVG Export Plug-In . SVG Version: 6.00 Build 0)  -->
<!DOCTYPE svg PUBLIC "-//W3C//DTD SVG 1.1//EN" "http://www.w3.org/Graphics/SVG/1.1/DTD/svg11.dtd">
<svg version="1.1" id="Layer_1" xmlns="http://www.w3.org/2000/svg" xmlns:xlink="http://www.w3.org/1999/xlink" x="0px" y="0px"
	 width="80px" height="40px" viewBox="0 0 80 40" enable-background="new 0 0 80 40" xml:space="preserve">
<g>
	<g>
		<line fill="none" stroke="#FFFFFF" stroke-width="1.753" stroke-miterlimit="10" x1="18.043" y1="21.595" x2="8.076" y2="31.56"/>
		<path fill="#FFFFFF" d="M18.119,19.636c1.04,0.002,1.883,0.842,1.883,1.885c0,1.037-0.842,1.881-1.883,1.881
			c-1.04,0.002-1.883-0.844-1.883-1.883C16.237,20.476,17.081,19.636,18.119,19.636z"/>
		<polygon fill="none" stroke="#FFFFFF" stroke-width="1.753" stroke-miterlimit="10" points="29.431,14.61 24.913,26.079 
			7.628,32.007 13.557,14.724 25.025,10.204 		"/>
	</g>
	
		<line fill="none" stroke="#FFFFFF" stroke-width="3" stroke-linecap="round" stroke-miterlimit="10" x1="22.85" y1="7.993" x2="31.644" y2="16.787"/>
	<g>
		
			<line fill="none" stroke="#FFFFFF" stroke-width="1.753" stroke-miterlimit="10" x1="58.043" y1="21.595" x2="48.076" y2="31.56"/>
		<path fill="#FFFFFF" d="M58.119,19.636c1.039,0.002,1.883,0.842,1.883,1.885c0.001,1.037-0.842,1.881-1.883,1.881
			c-1.039,0.002-1.883-0.844-1.883-1.883C56.236,20.476,57.08,19.636,58.119,19.636z"/>
		<polygon fill="none" stroke="#FFFFFF" stroke-width="1.753" stroke-miterlimit="10" points="69.432,14.61 64.913,26.079 
			47.629,32.007 53.557,14.724 65.025,10.204 		"/>
	</g>
	
		<line fill="none" stroke="#FFFFFF" stroke-width="3" stroke-linecap="round" stroke-miterlimit="10" x1="62.85" y1="7.993" x2="71.645" y2="16.787"/>
</g>
</svg>
